<!-- icon666.com - MILLIONS vector ICONS FREE --><svg version="1.1" id="Capa_1" xmlns="http://www.w3.org/2000/svg" xmlns:xlink="http://www.w3.org/1999/xlink" x="0px" y="0px" viewBox="0 0 43.393 43.393" style="enable-background:new 0 0 43.393 43.393;" xml:space="preserve"><g><path style="fill: rgb(148, 18, 18);" d="M1.173,28.777c-0.046,0.006-0.301-0.931-0.564-2.094c-0.159-0.703-0.304-1.408-0.4-2.12 c-0.611-4.538,0.11-8.882,2.291-12.913C5.927,5.315,11.232,1.519,18.337,0.288c2.01-0.348,4.034-0.452,6.035,0.1 c4.293,1.184,7.305,5.337,7.043,9.701c-0.281,4.685-3.618,8.427-8.14,9.127c-5.251,0.813-10.092-2.655-11.017-7.892 c-0.01-0.058-0.025-0.115-0.044-0.184c-0.028-0.101-2.295,0.307-4.612,1.809c-1.811,1.174-3.325,2.736-4.529,4.704 c-1.197,1.958-1.888,4.009-2.11,6.141C0.68,26.541,1.22,28.771,1.173,28.777z M42.761,16.828 C40.789,8.931,35.85,3.687,28.151,1.059c-0.462-0.158-0.936-0.282-1.412-0.397c-0.787-0.19,0.806,0.222,3.058,1.821 c3.804,2.701,5.935,6.946,6.288,11.076c0.235,2.751-1.498,4.534-2.82,4.378c-0.794-0.094-1.594-0.084-2.403,0.041 c-5.444,0.846-8.968,5.624-8.194,11.082c0.736,5.198,5.935,8.943,11.1,8.005c3.361-0.61,5.745-2.508,7.251-5.53 C43.356,26.846,44.031,21.913,42.761,16.828z M27.658,39.805c-2.303-0.034-4.411-0.539-6.33-1.486 c-2.476-1.222-4.034-2.929-4.025-2.956c0.01-0.03,0.013-0.041,0.02-0.047c0.098-0.091,0.198-0.18,0.298-0.27 c2.388-2.164,3.557-4.857,3.259-8.07c-0.357-3.855-2.365-6.645-5.942-8.113c-3.595-1.476-6.99-0.881-9.969,1.614 c-3.344,2.801-4.672,8.026-1.777,12.581c4.044,6.363,9.882,9.827,17.392,10.293c5.395,0.335,10.246-1.3,14.517-4.62 c0.571-0.443,1.116-0.915,1.632-1.418c0.856-0.835-0.175,0.015-2.684,1.169C32.093,39.382,29.967,39.839,27.658,39.805z" fill="#1D1C1A"></path></g></svg>